<?xml version="1.0" encoding="UTF-8"?>
<!DOCTYPE svg PUBLIC "-//W3C//DTD SVG 1.1//EN" "http://www.w3.org/Graphics/SVG/1.1/DTD/svg11.dtd">
<svg xmlns="http://www.w3.org/2000/svg" version="1.1" width="184px" height="180px" style="shape-rendering:geometricPrecision; text-rendering:geometricPrecision; image-rendering:optimizeQuality; fill-rule:evenodd; clip-rule:evenodd" xmlns:xlink="http://www.w3.org/1999/xlink">
<g><path style="opacity:0.877" fill="#000000" d="M 70.5,6.5 C 106.031,0.794423 134.031,12.2944 154.5,41C 160.459,54.2255 162.292,68.3922 160,83.5C 159.08,87.2633 157.58,90.7633 155.5,94C 155.833,94.3333 156.167,94.6667 156.5,95C 150.694,103.457 145.027,111.957 139.5,120.5C 131.249,122.93 127.749,119.93 129,111.5C 130.112,108.722 131.945,106.555 134.5,105C 134,104.833 133.5,104.667 133,104.5C 128.999,106.372 125.166,108.372 121.5,110.5C 99.427,103.241 77.427,103.241 55.5,110.5C 51.2191,108.548 46.8858,106.548 42.5,104.5C 42.1667,104.667 41.8333,104.833 41.5,105C 48.8916,112.05 47.725,117.217 38,120.5C 36.7741,120.355 35.6074,120.022 34.5,119.5C 24.9068,107.321 18.4068,93.9881 15,79.5C 13.2704,49.9223 25.2704,27.9223 51,13.5C 57.3529,10.3905 63.8529,8.05714 70.5,6.5 Z M 79.5,19.5 C 80.6453,23.3112 80.8119,27.3112 80,31.5C 76.5631,32.5624 73.0631,33.0624 69.5,33C 73.417,28.9186 76.7503,24.4186 79.5,19.5 Z M 95.5,19.5 C 98.6277,23.7984 101.961,27.965 105.5,32C 105,32.5 104.5,33 104,33.5C 101.333,32.8333 98.6667,32.1667 96,31.5C 95.5012,27.5138 95.3345,23.5138 95.5,19.5 Z M 121.5,30.5 C 125.167,33.5 128.5,36.8333 131.5,40.5C 126.167,39.1667 122.833,35.8333 121.5,30.5 Z M 52.5,33.5 C 50.3504,37.5833 47.017,40.2499 42.5,41.5C 45.2361,39.4457 47.5695,36.9457 49.5,34C 50.448,33.5172 51.448,33.3505 52.5,33.5 Z M 73.5,46.5 C 75.8568,46.3367 78.1902,46.5034 80.5,47C 80.5726,52.6309 80.4059,58.4642 80,64.5C 73.5816,65.6433 67.0816,65.81 60.5,65C 60.0426,64.586 59.7093,64.086 59.5,63.5C 60.439,59.5357 61.2724,55.5357 62,51.5C 65.2834,48.361 69.1167,46.6944 73.5,46.5 Z M 95.5,46.5 C 101.257,46.6816 106.924,47.5149 112.5,49C 114.202,54.3459 115.202,59.8459 115.5,65.5C 109.158,65.6662 102.825,65.4995 96.5,65C 95.5236,58.9242 95.1903,52.7576 95.5,46.5 Z M 44.5,55.5 C 45.784,58.6836 45.4506,61.8502 43.5,65C 39.1667,65.6667 34.8333,65.6667 30.5,65C 35.3072,61.9173 39.9738,58.7507 44.5,55.5 Z M 130.5,56.5 C 135.77,58.8032 140.77,61.6365 145.5,65C 140.833,65.6667 136.167,65.6667 131.5,65C 130.556,62.2809 130.223,59.4475 130.5,56.5 Z M 30.5,80.5 C 34.6463,79.353 38.9796,79.1864 43.5,80C 44.2509,83.3093 45.2509,86.6427 46.5,90C 42.4933,88.5018 38.4933,86.6684 34.5,84.5C 33.4787,82.812 32.1454,81.4787 30.5,80.5 Z M 60.5,79.5 C 66.5092,79.3338 72.5092,79.5005 78.5,80C 79,80.5 79.5,81 80,81.5C 80.7876,87.2195 80.6209,92.8862 79.5,98.5C 74.8316,99.5033 70.1649,99.3366 65.5,98C 61.1212,92.5536 59.4545,86.387 60.5,79.5 Z M 95.5,79.5 C 102.167,79.5 108.833,79.5 115.5,79.5C 115.38,84.9369 114.546,90.2703 113,95.5C 112.097,96.7014 110.931,97.5348 109.5,98C 104.882,98.994 100.215,99.494 95.5,99.5C 95.5,92.8333 95.5,86.1667 95.5,79.5 Z M 131.5,79.5 C 136.214,79.1734 140.88,79.5067 145.5,80.5C 140.544,83.7698 135.544,87.1031 130.5,90.5C 130.167,90.3333 129.833,90.1667 129.5,90C 130.203,86.5044 130.87,83.0044 131.5,79.5 Z"/></g>
<g><path style="opacity:0.905" fill="#000000" d="M 168.5,107.5 C 171.909,107.249 175.242,107.583 178.5,108.5C 179.652,111.106 179.818,113.773 179,116.5C 172.388,127.92 164.888,138.587 156.5,148.5C 150.13,155.697 142.13,159.53 132.5,160C 110.478,160.778 88.4782,161.778 66.5,163C 62.2627,164.156 60.2627,166.99 60.5,171.5C 41.5,171.5 22.5,171.5 3.5,171.5C 3.49136,169.692 3.99136,168.025 5,166.5C 16.4351,149.731 30.9351,135.231 48.5,123C 69.9297,112.197 92.263,109.863 115.5,116C 121.588,118.646 123.255,122.813 120.5,128.5C 115.795,130.926 110.795,132.26 105.5,132.5C 97.8284,131.881 90.1617,131.214 82.5,130.5C 79.0074,130.072 76.674,131.406 75.5,134.5C 76.7331,137.464 79.0664,138.964 82.5,139C 102.786,141.782 122.453,139.449 141.5,132C 149.935,126.568 156.601,119.568 161.5,111C 163.713,109.384 166.047,108.217 168.5,107.5 Z"/></g>
</svg>
