<?xml version="1.0" encoding="UTF-8"?>
<!DOCTYPE svg PUBLIC "-//W3C//DTD SVG 1.1//EN" "http://www.w3.org/Graphics/SVG/1.1/DTD/svg11.dtd">
<svg xmlns="http://www.w3.org/2000/svg" version="1.1" width="184px" height="180px" style="shape-rendering:geometricPrecision; text-rendering:geometricPrecision; image-rendering:optimizeQuality; fill-rule:evenodd; clip-rule:evenodd" xmlns:xlink="http://www.w3.org/1999/xlink">
<g><path style="opacity:0.815" fill="#000000" d="M 85.5,5.5 C 102.66,5.24032 118.326,8.40699 132.5,15C 135.271,17.2372 138.104,19.4038 141,21.5C 141.333,21.1667 141.667,20.8333 142,20.5C 143.667,22.5 145.333,24.5 147,26.5C 147.414,26.0426 147.914,25.7093 148.5,25.5C 149.711,26.2739 149.711,27.1072 148.5,28C 152.148,28.7313 154.315,30.898 155,34.5C 158.39,36.6325 160.723,39.6325 162,43.5C 168.492,51.9112 172.492,61.9112 174,73.5C 173.687,81.3494 173.854,89.1827 174.5,97C 173.933,104.367 172.599,111.867 170.5,119.5C 169.5,119.5 168.5,119.5 167.5,119.5C 167.146,121.541 167.146,123.374 167.5,125C 166.167,126 164.833,127 163.5,128C 163.833,128.333 164.167,128.667 164.5,129C 162.405,134.289 159.071,138.623 154.5,142C 154.957,142.414 155.291,142.914 155.5,143.5C 152.705,145.284 150.705,147.618 149.5,150.5C 144.813,151.345 140.813,153.511 137.5,157C 138.34,158.666 137.84,158.833 136,157.5C 124.945,165.85 112.612,170.183 99,170.5C 86.2762,171.402 73.7762,169.902 61.5,166C 58.8998,164.573 56.3998,163.073 54,161.5C 53.15,162.424 52.15,162.424 51,161.5C 49.7005,159.541 47.8671,158.374 45.5,158C 45.8333,157.667 46.1667,157.333 46.5,157C 44.0261,156.887 42.0261,155.887 40.5,154C 34.639,149.475 28.9723,143.808 23.5,137C 23.8333,136.667 24.1667,136.333 24.5,136C 20.7258,132.647 18.0591,128.98 16.5,125C 16.8333,124.667 17.1667,124.333 17.5,124C 13.4574,119.714 11.2907,114.547 11,108.5C 8.3799,91.6406 9.21324,74.9739 13.5,58.5C 15.1974,53.9564 17.5307,49.7897 20.5,46C 20.1667,45.6667 19.8333,45.3333 19.5,45C 20.8334,42.9905 22.5,41.3239 24.5,40C 24.0426,39.586 23.7093,39.086 23.5,38.5C 27.6958,36.4707 30.6958,33.3041 32.5,29C 33.5,28.6667 34.5,28.3333 35.5,28C 34.2888,27.1072 34.2888,26.2739 35.5,25.5C 36.086,25.7093 36.586,26.0426 37,26.5C 39.0435,24.792 40.7101,22.792 42,20.5C 43.1313,21.6039 43.9646,21.2705 44.5,19.5C 45.6888,18.5713 47.0222,18.238 48.5,18.5C 48.5,17.5 48.5,16.5 48.5,15.5C 53.8553,14.283 58.522,12.4497 62.5,10C 69.9946,8.38416 77.6613,6.88416 85.5,5.5 Z M 84.5,18.5 C 98.388,18.6753 111.388,21.3419 123.5,26.5C 124.167,27.5 124.833,28.5 125.5,29.5C 126.086,29.2907 126.586,28.9574 127,28.5C 128.098,29.9675 129.598,30.8008 131.5,31C 131.167,31.3333 130.833,31.6667 130.5,32C 131.938,32.2189 133.271,32.7189 134.5,33.5C 137.978,38.812 142.312,43.312 147.5,47C 147.167,47.3333 146.833,47.6667 146.5,48C 150.395,50.6181 152.395,53.9514 152.5,58C 154.883,58.065 155.55,58.8983 154.5,60.5C 161.566,73.6723 163.233,87.839 159.5,103C 157.945,107.877 156.445,112.711 155,117.5C 152.276,120.626 150.109,123.626 148.5,126.5C 148.709,127.086 149.043,127.586 149.5,128C 147.695,128.972 146.028,130.139 144.5,131.5C 144.709,132.086 145.043,132.586 145.5,133C 142.333,134.833 139.833,137.333 138,140.5C 136.927,139.72 135.76,139.887 134.5,141C 133.54,142.419 132.707,143.919 132,145.5C 131.586,145.043 131.086,144.709 130.5,144.5C 122.93,149.653 114.763,153.653 106,156.5C 96.6667,157.833 87.3333,157.833 78,156.5C 74.2519,155 70.5852,153.334 67,151.5C 66.6667,151.833 66.3333,152.167 66,152.5C 58.6402,148.203 51.4735,143.703 44.5,139C 42.5428,137.009 40.5428,135.009 38.5,133C 38.9574,132.586 39.2907,132.086 39.5,131.5C 37.9716,130.139 36.3049,128.972 34.5,128C 35.7908,125.91 35.1242,124.576 32.5,124C 28.3237,115.334 25.157,105.834 23,95.5C 21.7024,82.841 23.869,71.1743 29.5,60.5C 28.45,58.8983 29.1167,58.065 31.5,58C 31.1667,57.6667 30.8333,57.3333 30.5,57C 32.6111,53.6567 34.6111,50.1567 36.5,46.5C 39.9719,43.9507 42.6386,40.784 44.5,37C 45.938,36.7811 47.2713,36.2811 48.5,35.5C 51.9049,33.2664 54.7382,30.9331 57,28.5C 57.414,28.9574 57.914,29.2907 58.5,29.5C 59.2621,28.3717 59.9288,27.2051 60.5,26C 68.4322,23.9002 76.4322,21.4002 84.5,18.5 Z M 90.5,61.5 C 94.5,62.5 98.5,63.5 102.5,64.5C 102.5,65.5 102.5,66.5 102.5,67.5C 104.942,67.1192 105.609,67.7859 104.5,69.5C 108.431,74.0327 108.431,78.5327 104.5,83C 104.833,83.3333 105.167,83.6667 105.5,84C 99.9947,90.9046 92.9947,92.9046 84.5,90C 83.1667,87.3333 81.1667,85.3333 78.5,84C 78.8333,83.6667 79.1667,83.3333 79.5,83C 75.5692,78.5327 75.5692,74.0327 79.5,69.5C 79.2907,68.914 78.9574,68.414 78.5,68C 80.1581,66.3761 81.8248,64.7094 83.5,63C 86.0356,62.8138 88.369,62.3138 90.5,61.5 Z"/></g>
<g><path style="opacity:0.861" fill="#000000" d="M 87.5,42.5 C 117.562,44.7167 129.729,60.3833 124,89.5C 119.719,97.2312 115.885,104.565 112.5,111.5C 111.5,111.5 110.5,111.5 109.5,111.5C 108.836,114.836 107.169,117.502 104.5,119.5C 104.214,122.951 102.381,124.951 99,125.5C 98.8371,127.676 98.0037,129.509 96.5,131C 93.5,131.667 90.5,131.667 87.5,131C 80.1189,122.107 73.1189,112.774 66.5,103C 65.1806,98.5129 63.0139,94.0129 60,89.5C 55.3958,72.5712 59.3958,58.9045 72,48.5C 76.6202,46.271 81.4535,44.771 86.5,44C 87.056,43.6174 87.3893,43.1174 87.5,42.5 Z M 90.5,61.5 C 88.369,62.3138 86.0356,62.8138 83.5,63C 81.8248,64.7094 80.1581,66.3761 78.5,68C 78.9574,68.414 79.2907,68.914 79.5,69.5C 75.5692,74.0327 75.5692,78.5327 79.5,83C 79.1667,83.3333 78.8333,83.6667 78.5,84C 81.1667,85.3333 83.1667,87.3333 84.5,90C 92.9947,92.9046 99.9947,90.9046 105.5,84C 105.167,83.6667 104.833,83.3333 104.5,83C 108.431,78.5327 108.431,74.0327 104.5,69.5C 105.609,67.7859 104.942,67.1192 102.5,67.5C 102.5,66.5 102.5,65.5 102.5,64.5C 98.5,63.5 94.5,62.5 90.5,61.5 Z"/></g>
</svg>
