<?xml version="1.0" encoding="UTF-8"?>
<!DOCTYPE svg PUBLIC "-//W3C//DTD SVG 1.1//EN" "http://www.w3.org/Graphics/SVG/1.1/DTD/svg11.dtd">
<svg xmlns="http://www.w3.org/2000/svg" version="1.1" width="184px" height="180px" style="shape-rendering:geometricPrecision; text-rendering:geometricPrecision; image-rendering:optimizeQuality; fill-rule:evenodd; clip-rule:evenodd" xmlns:xlink="http://www.w3.org/1999/xlink">
<g><path style="opacity:0.813" fill="#000000" d="M 74.5,6.5 C 115.646,1.99202 146.146,16.992 166,51.5C 172.206,63.2311 174.706,75.7311 173.5,89C 174.323,111.501 166.657,130.834 150.5,147C 151.654,147.914 151.487,148.747 150,149.5C 149.667,149.167 149.333,148.833 149,148.5C 137.862,160.22 123.696,167.72 106.5,171C 60.0032,176.54 27.8365,158.373 10,116.5C -0.385468,73.1143 11.7812,39.9476 46.5,17C 55.5833,12.5867 64.9166,9.08669 74.5,6.5 Z M 82.5,14.5 C 121.224,13.7442 147.724,31.0775 162,66.5C 171.454,109.755 156.288,140.589 116.5,159C 75.3782,169.996 44.0449,157.996 22.5,123C 22.8333,122.667 23.1667,122.333 23.5,122C 16.2479,109.878 13.4145,96.711 15,82.5C 18.247,54.1654 33.0804,33.6654 59.5,21C 66.9947,17.7446 74.6614,15.5779 82.5,14.5 Z"/></g>
<g><path style="opacity:0.905" fill="#000000" d="M 137.5,63.5 C 134.458,64.384 131.792,65.884 129.5,68C 116.878,78.4961 104.545,88.3294 92.5,97.5C 75.57,85.4998 58.7367,72.4998 42,58.5C 41.5172,57.552 41.3505,56.552 41.5,55.5C 75.1667,55.5 108.833,55.5 142.5,55.5C 142.649,56.552 142.483,57.552 142,58.5C 139.8,59.6508 138.3,61.3175 137.5,63.5 Z"/></g>
<g><path style="opacity:0.871" fill="#000000" d="M 36.5,58.5 C 38.1789,58.8923 39.8455,59.3923 41.5,60C 44.0009,62.4051 46.5009,64.9051 49,67.5C 57.9479,73.1493 66.4479,79.9827 74.5,88C 63.2331,99.2669 51.8997,110.6 40.5,122C 39.2068,122.49 37.8734,122.657 36.5,122.5C 36.5,101.167 36.5,79.8333 36.5,58.5 Z"/></g>
<g><path style="opacity:0.877" fill="#000000" d="M 137.5,63.5 C 140.528,61.4936 143.861,60.1603 147.5,59.5C 147.5,80.5 147.5,101.5 147.5,122.5C 146.127,122.657 144.793,122.49 143.5,122C 132.154,110.654 120.821,99.321 109.5,88C 110.882,86.0671 112.382,84.2337 114,82.5C 114.333,82.8333 114.667,83.1667 115,83.5C 116,82.1667 117,80.8333 118,79.5C 118.333,79.8333 118.667,80.1667 119,80.5C 124,75.8333 129,71.1667 134,66.5C 136.005,67.0317 137.171,66.0317 137.5,63.5 Z"/></g>
<g><path style="opacity:0.897" fill="#000000" d="M 75.5,90.5 C 76.8734,90.3433 78.2068,90.51 79.5,91C 83.3935,94.5646 87.5602,97.7313 92,100.5C 96.4398,97.7313 100.606,94.5646 104.5,91C 105.833,90.3333 107.167,90.3333 108.5,91C 120,101.833 131.5,112.667 143,123.5C 143.483,124.448 143.649,125.448 143.5,126.5C 109.167,126.5 74.8333,126.5 40.5,126.5C 40.3505,125.448 40.5172,124.448 41,123.5C 52.725,112.606 64.225,101.606 75.5,90.5 Z"/></g>
</svg>
