<?xml version="1.0" encoding="UTF-8"?>
<!DOCTYPE svg PUBLIC "-//W3C//DTD SVG 1.1//EN" "http://www.w3.org/Graphics/SVG/1.1/DTD/svg11.dtd">
<svg xmlns="http://www.w3.org/2000/svg" version="1.1" width="184px" height="180px" style="shape-rendering:geometricPrecision; text-rendering:geometricPrecision; image-rendering:optimizeQuality; fill-rule:evenodd; clip-rule:evenodd" xmlns:xlink="http://www.w3.org/1999/xlink">
<g><path style="opacity:0.903" fill="#000000" d="M 19.5,5.5 C 60.2521,5.01153 100.919,5.51153 141.5,7C 144.467,9.10046 146.3,11.9338 147,15.5C 147.667,30.8333 147.667,46.1667 147,61.5C 142.792,67.8531 139.292,74.5197 136.5,81.5C 135.5,81.5 134.5,81.5 133.5,81.5C 133.173,60.591 133.507,39.7577 134.5,19C 98.1682,18.5 61.8349,18.3333 25.5,18.5C 25.5,65.1667 25.5,111.833 25.5,158.5C 61.5412,158.487 97.3745,158.487 133,158.5C 133.333,152.833 133.667,147.167 134,141.5C 137.5,135.167 141,128.833 144.5,122.5C 145.325,121.614 146.325,121.281 147.5,121.5C 147.667,134.837 147.5,148.171 147,161.5C 146.332,165.499 144.165,168.332 140.5,170C 99.4159,170.988 58.4159,170.655 17.5,169C 15.6217,167.457 14.1217,165.624 13,163.5C 12.3333,113.167 12.3333,62.8333 13,12.5C 14.6941,9.64238 16.8607,7.30904 19.5,5.5 Z"/></g>
<g><path style="opacity:0.823" fill="#000000" d="M 34.5,35.5 C 57.5,35.5 80.5,35.5 103.5,35.5C 103.784,38.7766 103.451,41.9433 102.5,45C 80.5,45.6667 58.5,45.6667 36.5,45C 34.6556,42.1963 33.9889,39.0297 34.5,35.5 Z"/></g>
<g><path style="opacity:0.739" fill="#000000" d="M 163.5,46.5 C 167.842,48.0216 172.175,50.355 176.5,53.5C 177.292,55.9285 177.292,58.0952 176.5,60C 175.057,61.0672 173.724,62.2338 172.5,63.5C 168.514,60.753 164.18,58.753 159.5,57.5C 160.892,53.8036 162.225,50.1369 163.5,46.5 Z"/></g>
<g><path style="opacity:0.831" fill="#000000" d="M 34.5,55.5 C 64.5,55.5 94.5,55.5 124.5,55.5C 124.5,58.8333 124.5,62.1667 124.5,65.5C 94.5,65.5 64.5,65.5 34.5,65.5C 34.5,62.1667 34.5,58.8333 34.5,55.5 Z"/></g>
<g><path style="opacity:0.866" fill="#000000" d="M 156.5,59.5 C 160.444,60.6549 163.944,62.6549 167,65.5C 167.741,64.3595 168.575,64.3595 169.5,65.5C 170.583,66.365 170.749,67.365 170,68.5C 156.394,90.2619 143.561,112.095 131.5,134C 126.933,140.953 120.6,145.453 112.5,147.5C 113.188,141.866 113.688,136.199 114,130.5C 128.004,106.679 142.171,83.0127 156.5,59.5 Z"/></g>
<g><path style="opacity:0.818" fill="#000000" d="M 34.5,73.5 C 57.5,73.5 80.5,73.5 103.5,73.5C 103.5,76.8333 103.5,80.1667 103.5,83.5C 80.5,83.5 57.5,83.5 34.5,83.5C 34.5,80.1667 34.5,76.8333 34.5,73.5 Z"/></g>
<g><path style="opacity:0.919" fill="#000000" d="M 123.5,93.5 C 124.479,96.6248 124.813,99.9581 124.5,103.5C 94.5,103.5 64.5,103.5 34.5,103.5C 34.5,100.5 34.5,97.5 34.5,94.5C 64.338,94.8314 94.0047,94.4981 123.5,93.5 Z"/></g>
<g><path style="opacity:0.826" fill="#000000" d="M 34.5,112.5 C 57.5,112.5 80.5,112.5 103.5,112.5C 103.5,115.833 103.5,119.167 103.5,122.5C 80.5,122.5 57.5,122.5 34.5,122.5C 34.5,119.167 34.5,115.833 34.5,112.5 Z"/></g>
<g><path style="opacity:0.818" fill="#000000" d="M 39.5,132.5 C 49.8088,131.131 53.9755,135.464 52,145.5C 46.3418,151.94 40.6751,151.94 35,145.5C 33.3794,139.923 34.8794,135.589 39.5,132.5 Z"/></g>
<g><path style="opacity:0.808" fill="#000000" d="M 66.5,132.5 C 77.8507,132.031 81.5173,137.031 77.5,147.5C 72.7342,151.118 67.7342,151.452 62.5,148.5C 62.1455,145.933 61.4788,143.433 60.5,141C 60.9031,139.527 61.5697,138.194 62.5,137C 62.1667,136.667 61.8333,136.333 61.5,136C 63.3464,134.97 65.0131,133.804 66.5,132.5 Z"/></g>
</svg>
