<?xml version="1.0" standalone="no"?>
<!DOCTYPE svg PUBLIC "-//W3C//DTD SVG 20010904//EN"
 "http://www.w3.org/TR/2001/REC-SVG-20010904/DTD/svg10.dtd">
<svg version="1.0" xmlns="http://www.w3.org/2000/svg"
 width="474.000000pt" height="314.000000pt" viewBox="0 0 474.000000 314.000000"
 preserveAspectRatio="xMidYMid meet">

<g transform="translate(0.000000,314.000000) scale(0.100000,-0.100000)"
fill="#000000" stroke="none">
<path d="M654 2910 c-29 -10 -64 -26 -78 -35 -26 -17 -56 -63 -56 -85 0 -7
559 -10 1830 -10 1271 0 1830 3 1830 10 0 22 -30 68 -55 84 -15 10 -52 26 -83
37 -53 18 -105 19 -1696 18 -1562 0 -1643 -1 -1692 -19z"/>
<path d="M367 2743 c-4 -3 -7 -25 -7 -49 0 -29 5 -44 16 -48 24 -9 3937 -7
3952 3 9 5 12 24 10 52 l-3 44 -1981 3 c-1089 1 -1984 -1 -1987 -5z"/>
<path d="M470 2603 c0 -5 0 -438 0 -963 0 -944 0 -955 20 -975 20 -20 28 -20
1860 -20 1832 0 1840 0 1860 20 20 20 20 31 20 980 l0 960 -1880 3 c-1034 1
-1880 -1 -1880 -5z m1031 -203 c19 -10 19 -30 19 -773 0 -580 -3 -766 -12
-775 -9 -9 -80 -12 -259 -12 -136 0 -254 3 -263 6 -14 6 -16 83 -16 775 0 721
1 769 18 778 23 14 487 14 513 1z m1117 -9 l22 -19 0 -766 0 -766 -285 0 -285
0 0 765 c0 752 0 765 20 785 19 19 33 20 263 20 222 -1 244 -2 265 -19z m1100
7 c9 -9 12 -196 12 -779 0 -690 -2 -767 -16 -773 -20 -8 -488 -8 -508 0 -14 6
-16 83 -16 773 0 583 3 770 12 779 17 17 499 17 516 0z"/>
<path d="M164 2220 c-51 -20 -54 -35 -54 -310 0 -140 3 -265 6 -277 11 -42 77
-63 197 -63 l107 0 0 35 0 34 -87 3 -88 3 0 260 0 260 88 3 87 3 0 29 0 30
-117 -1 c-65 0 -128 -4 -139 -9z"/>
<path d="M4280 2201 l0 -30 88 -3 87 -3 0 -260 0 -260 -87 -3 -88 -3 0 -34 0
-35 107 0 c120 0 186 21 197 63 3 12 6 138 6 279 l0 257 -24 28 c-24 28 -26
28 -155 31 l-131 4 0 -31z"/>
<path d="M897 603 c-4 -3 -7 -19 -7 -34 l0 -28 113 -3 112 -3 3 -35 c2 -31 -2
-38 -37 -59 -45 -27 -64 -58 -64 -100 0 -45 29 -80 91 -109 117 -55 302 -37
383 37 60 53 43 136 -37 176 -49 25 -53 31 -45 64 7 26 8 26 114 29 l107 3 0
34 0 35 -363 0 c-200 0 -367 -3 -370 -7z m458 -217 c58 -38 6 -106 -80 -106
-49 0 -109 28 -113 53 -5 23 32 64 62 71 38 8 105 -1 131 -18z"/>
<path d="M2957 603 c-4 -3 -7 -19 -7 -34 l0 -28 113 -3 112 -3 3 -36 c3 -32 0
-38 -28 -49 -41 -17 -80 -69 -80 -108 0 -76 121 -142 260 -142 232 0 347 162
177 249 -43 22 -48 27 -45 55 l3 31 113 3 112 3 0 34 0 35 -363 0 c-200 0
-367 -3 -370 -7z m438 -207 c38 -16 56 -56 35 -81 -49 -60 -216 -33 -208 33 6
52 101 78 173 48z"/>
</g>
</svg>
