<?xml version="1.0" standalone="no"?>
<!DOCTYPE svg PUBLIC "-//W3C//DTD SVG 20010904//EN"
 "http://www.w3.org/TR/2001/REC-SVG-20010904/DTD/svg10.dtd">
<svg version="1.0" xmlns="http://www.w3.org/2000/svg"
 width="474.000000pt" height="314.000000pt" viewBox="0 0 474.000000 314.000000"
 preserveAspectRatio="xMidYMid meet">

<g transform="translate(0.000000,314.000000) scale(0.100000,-0.100000)"
fill="#000000" stroke="none">
<path d="M1250 2748 l-285 -192 -135 29 c-215 45 -179 54 -334 -80 -84 -72
-136 -125 -136 -136 0 -18 31 -19 930 -19 l930 0 0 25 c0 14 -6 25 -12 25 -7
0 -43 51 -80 114 l-67 114 -59 -5 c-32 -3 -67 -1 -78 5 -10 6 -98 78 -194 161
-96 83 -179 151 -185 151 -5 0 -138 -87 -295 -192z"/>
<path d="M2682 2490 c-9 -15 -12 -165 -12 -645 l0 -625 -715 0 c-470 0 -715 3
-715 10 0 6 -11 10 -24 10 -14 0 -28 5 -31 10 -16 25 -285 4 -285 -22 0 -5
-124 -8 -275 -8 -263 0 -276 -1 -295 -20 -19 -19 -21 -32 -20 -203 1 -116 -2
-183 -9 -185 -5 -2 -7 -10 -4 -18 4 -11 -5 -14 -41 -14 l-46 0 0 -155 c0 -209
-17 -195 235 -195 l195 0 30 -33 c16 -17 30 -37 30 -42 0 -6 9 -17 20 -25 11
-8 20 -20 20 -27 0 -7 7 -13 16 -13 8 0 12 -5 9 -10 -3 -6 1 -10 9 -10 9 0 16
-4 16 -10 0 -5 6 -10 13 -10 7 0 24 -11 39 -25 23 -21 42 -27 128 -36 120 -12
289 2 303 26 4 8 15 11 24 8 11 -4 14 -3 9 6 -5 8 -1 14 13 18 12 3 21 9 21
14 0 5 4 9 9 9 14 0 91 81 91 96 0 8 5 14 10 14 6 0 10 5 10 11 0 39 -11 39
939 39 901 0 910 0 916 -20 3 -11 11 -20 16 -20 5 0 9 -5 9 -10 0 -18 105
-130 122 -130 5 0 16 -6 23 -12 8 -7 21 -18 29 -25 7 -6 60 -17 116 -23 119
-13 289 2 303 26 5 8 12 12 18 9 5 -4 9 1 9 9 0 9 7 16 15 16 8 0 15 5 15 10
0 6 5 10 10 10 16 0 100 90 100 106 0 8 4 14 9 14 5 0 12 8 16 18 5 17 24 19
237 26 128 4 233 8 235 9 2 2 5 243 3 305 0 20 -5 22 -52 22 -29 0 -57 4 -63
8 -5 4 -11 52 -12 107 -4 144 -28 293 -69 425 -19 63 -38 125 -41 138 -3 12
-9 22 -14 22 -5 0 -9 7 -9 15 0 8 -4 23 -9 33 -37 73 -51 106 -51 117 0 7 -3
15 -7 17 -5 2 -19 26 -33 53 -40 82 -148 242 -225 334 -103 123 -282 293 -410
388 l-110 83 -400 0 c-389 0 -401 -1 -413 -20z m788 -310 c0 -5 6 -10 14 -10
13 0 148 -129 201 -192 43 -50 105 -138 105 -148 0 -5 4 -10 8 -10 5 0 14 -16
22 -35 8 -19 17 -35 22 -35 4 0 8 -7 8 -15 0 -8 5 -15 10 -15 6 0 10 -4 10
-10 0 -6 -118 -10 -335 -10 l-335 0 0 233 c0 168 3 236 12 245 15 15 258 17
258 2z m-2290 -1230 c83 -59 126 -151 118 -254 -9 -103 -59 -180 -145 -222
-75 -36 -168 -18 -232 44 -31 30 -71 108 -71 138 0 17 -5 35 -11 41 -8 8 -8
17 0 31 6 11 11 36 12 54 0 18 13 53 27 77 71 116 209 157 302 91z m2630 2
c67 -32 104 -85 130 -183 12 -48 9 -80 -17 -159 -41 -125 -167 -193 -278 -150
-40 15 -101 75 -128 125 -32 60 -31 192 2 257 61 118 179 163 291 110z"/>
<path d="M100 2179 c0 -50 9 -120 25 -187 13 -59 41 -179 60 -267 75 -333 89
-390 101 -402 16 -16 2159 -19 2149 -3 -3 5 26 10 72 12 l78 3 0 460 0 460
-1242 3 -1243 2 0 -81z m457 -85 c3 -9 -15 -123 -41 -253 -56 -280 -65 -316
-75 -305 -5 5 -35 132 -67 282 -49 232 -56 275 -43 283 7 5 60 9 117 9 85 0
104 -3 109 -16z m553 0 c0 -26 -110 -597 -116 -603 -8 -9 -251 -7 -259 1 -4 4
21 145 56 313 l64 305 127 0 c111 0 128 -2 128 -16z m580 -13 c0 -10 -25 -150
-55 -311 -30 -161 -55 -295 -55 -296 0 -2 -61 -4 -135 -4 -96 0 -135 3 -135
12 0 6 27 141 60 299 33 158 60 294 60 303 0 14 18 16 130 16 120 0 130 -1
130 -19z m600 2 c0 -9 -25 -149 -55 -309 -30 -161 -55 -295 -55 -298 0 -3 -61
-6 -135 -6 -78 0 -135 4 -135 9 0 11 119 590 125 609 3 9 38 12 130 12 111 0
125 -2 125 -17z"/>
</g>
</svg>
