<?xml version="1.0" standalone="no"?>
<!DOCTYPE svg PUBLIC "-//W3C//DTD SVG 20010904//EN"
 "http://www.w3.org/TR/2001/REC-SVG-20010904/DTD/svg10.dtd">
<svg version="1.0" xmlns="http://www.w3.org/2000/svg"
 width="474.000000pt" height="314.000000pt" viewBox="0 0 474.000000 314.000000"
 preserveAspectRatio="xMidYMid meet">

<g transform="translate(0.000000,314.000000) scale(0.100000,-0.100000)"
fill="#000000" stroke="none">
<path d="M3120 2923 c-44 -23 -62 -57 -56 -106 5 -47 28 -74 75 -88 24 -6 233
-9 613 -7 568 3 577 3 605 24 55 41 55 127 0 168 -28 21 -37 21 -615 24 -544
2 -590 1 -622 -15z"/>
<path d="M2135 2871 c-88 -48 -151 -110 -182 -178 -30 -66 -48 -67 -93 -8 -19
25 -39 45 -46 45 -16 0 -61 -61 -86 -117 -17 -39 -20 -60 -16 -135 7 -110 1
-117 -73 -88 -82 31 -82 31 -77 -50 6 -86 43 -166 99 -213 37 -32 49 -60 31
-71 -5 -3 -37 -7 -71 -10 -35 -3 -65 -7 -67 -9 -10 -9 80 -107 124 -135 59
-38 156 -82 182 -82 49 0 31 -44 -31 -74 -46 -23 -63 -46 -32 -46 11 0 23 -4
29 -9 30 -27 124 -45 244 -47 92 -1 125 -4 125 -13 0 -7 -31 -30 -70 -51 -78
-43 -142 -107 -173 -174 -12 -24 -27 -48 -33 -52 -8 -4 -30 13 -59 46 l-47 54
-26 -29 c-57 -65 -72 -111 -72 -225 l-1 -105 -26 -3 c-15 -2 -45 6 -67 17 -62
32 -64 30 -59 -52 6 -88 34 -151 95 -210 62 -61 58 -73 -27 -82 -81 -8 -85
-16 -37 -72 59 -69 104 -99 212 -141 46 -17 81 -37 83 -46 2 -10 -14 -23 -47
-38 -54 -25 -71 -46 -43 -54 9 -3 24 -9 32 -13 62 -32 141 -46 268 -45 124 0
132 -1 132 -20 0 -10 -12 -34 -26 -53 -14 -19 -23 -37 -19 -41 4 -4 50 -5 103
-3 111 4 213 35 273 82 20 16 44 29 53 29 20 0 36 -39 36 -86 0 -42 8 -42 85
-6 79 38 158 111 191 177 14 30 32 56 40 59 8 3 27 -10 47 -31 64 -71 58 -69
84 -37 13 16 36 54 51 84 22 46 27 67 26 125 -1 39 -4 81 -5 95 -5 34 28 38
92 10 27 -11 54 -18 60 -15 6 4 8 31 4 68 -6 75 -52 173 -99 214 -44 39 -50
51 -36 68 9 10 33 15 76 15 48 0 64 3 64 14 0 22 -110 129 -161 158 -25 14
-74 33 -108 44 -52 15 -61 21 -59 39 2 12 21 29 50 45 27 14 47 29 45 34 -2 5
-36 22 -77 39 -69 28 -86 30 -204 32 -84 1 -131 5 -133 12 -2 6 25 26 61 43
80 39 151 108 183 178 31 66 49 67 101 5 40 -48 40 -48 61 -29 12 11 36 49 54
85 28 57 32 75 30 136 -1 38 -3 81 -5 95 -4 34 21 37 87 10 30 -12 59 -19 65
-15 17 10 2 120 -25 179 -12 28 -43 73 -69 101 -25 27 -46 53 -46 58 0 11 17
16 83 21 32 2 61 7 65 10 9 10 -40 71 -93 115 -58 49 -105 74 -181 96 -70 20
-71 40 -4 78 28 16 50 32 50 36 0 7 -54 30 -145 62 -26 9 -84 14 -169 14 -90
0 -131 4 -133 12 -2 6 7 30 21 52 14 22 26 45 26 50 0 5 -35 7 -82 4 -124 -7
-237 -41 -304 -90 -52 -38 -74 -27 -74 37 0 37 -9 60 -24 60 -6 -1 -42 -18
-81 -39z m425 -46 c0 -9 -7 -27 -16 -40 -19 -29 -11 -45 20 -45 13 0 42 -7 66
-15 31 -11 52 -12 83 -5 48 11 150 11 187 1 31 -9 38 -37 11 -46 -10 -3 -25
-12 -31 -21 -10 -12 -9 -18 6 -36 34 -38 97 -78 123 -78 43 -1 155 -63 159
-88 3 -19 -2 -22 -30 -22 -53 0 -65 -13 -50 -53 7 -18 12 -39 12 -47 0 -7 22
-37 50 -66 82 -86 104 -158 46 -147 -15 3 -29 9 -32 14 -3 5 -13 9 -23 9 -13
0 -25 -17 -41 -55 -20 -49 -21 -59 -10 -106 10 -40 10 -63 1 -105 -14 -63 -29
-68 -65 -22 -23 29 -27 31 -51 20 -51 -24 -97 -66 -117 -109 -29 -63 -100
-138 -121 -130 -9 3 -17 17 -17 29 0 42 -12 50 -61 39 -24 -6 -56 -11 -72 -11
-15 0 -45 -13 -68 -29 -58 -42 -177 -87 -192 -72 -9 9 -8 19 6 43 10 17 14 34
10 39 -4 4 -36 14 -70 23 -49 12 -72 13 -120 4 -73 -13 -192 -3 -200 18 -7 19
15 44 38 44 35 0 31 22 -13 62 -26 25 -62 46 -93 55 -62 18 -150 60 -166 79
-20 25 -3 44 41 44 45 0 46 5 30 75 -5 24 -20 50 -38 65 -35 29 -102 126 -102
146 0 24 29 28 65 8 40 -21 43 -19 73 53 17 40 20 57 12 78 -13 34 -13 116 0
149 13 34 34 33 62 -4 25 -34 39 -37 59 -14 8 9 30 27 50 39 23 15 45 42 62
77 32 66 97 131 120 122 11 -4 17 -18 17 -39 0 -19 3 -36 8 -38 15 -10 159 29
197 52 64 40 85 50 119 60 47 14 66 13 66 -4z m0 -1288 c0 -7 -7 -23 -16 -36
-21 -30 -11 -39 66 -57 48 -11 80 -12 129 -6 72 10 178 5 187 -9 7 -12 -14
-49 -29 -49 -7 0 -19 -5 -27 -10 -12 -8 -6 -18 33 -54 27 -24 67 -49 90 -55
64 -18 118 -43 155 -69 40 -31 28 -52 -29 -52 -44 0 -44 -2 -25 -74 7 -29 23
-58 39 -71 43 -38 97 -115 97 -141 0 -18 -5 -24 -22 -24 -13 0 -32 7 -42 15
-11 8 -24 15 -28 15 -5 0 -20 -25 -35 -55 -25 -51 -26 -58 -15 -100 15 -55 15
-79 1 -128 -12 -46 -33 -48 -69 -5 l-27 32 -58 -45 c-38 -29 -68 -61 -84 -92
-35 -69 -93 -132 -114 -124 -10 4 -17 17 -17 35 0 15 -5 33 -11 39 -16 16
-147 -15 -194 -46 -74 -50 -177 -83 -190 -61 -4 6 0 22 9 35 9 13 16 28 16 33
0 5 -28 16 -61 26 -48 13 -83 15 -158 11 -152 -10 -219 15 -147 55 16 9 31 20
32 25 5 20 -98 94 -140 100 -57 10 -166 71 -166 94 0 23 17 31 52 24 33 -6 40
6 32 59 -5 30 -19 55 -49 88 -54 58 -95 120 -95 142 0 22 38 24 66 3 31 -24
40 -18 67 45 21 47 24 65 17 86 -11 28 -13 117 -4 152 8 29 35 28 64 -3 13
-14 28 -25 33 -25 5 0 35 18 67 41 40 28 61 50 65 69 3 15 25 50 48 78 62 75
97 81 97 16 0 -39 -3 -38 95 -20 48 9 87 24 126 49 78 50 169 74 169 44z"/>
<path d="M2339 2422 c-88 -33 -138 -72 -166 -129 -78 -160 77 -315 299 -300
44 3 85 10 91 16 6 6 18 11 27 11 25 0 98 68 120 111 50 97 -4 228 -111 268
-19 7 -43 18 -54 23 -35 20 -155 19 -206 0z m184 -53 c23 -6 56 -28 83 -54 41
-42 44 -48 44 -100 0 -49 -4 -59 -37 -96 -52 -57 -100 -79 -173 -79 -63 0 -81
7 -143 54 -72 55 -86 124 -39 195 34 51 61 70 121 87 47 13 74 12 144 -7z"/>
<path d="M2354 1141 c-99 -26 -172 -89 -194 -167 -16 -55 -7 -98 30 -157 31
-50 64 -71 150 -99 72 -23 132 -23 211 2 221 70 242 297 37 401 -44 22 -181
34 -234 20z m170 -58 c32 -12 62 -33 87 -62 35 -39 39 -49 39 -98 0 -50 -3
-56 -43 -97 -44 -43 -116 -76 -166 -76 -35 0 -108 26 -142 51 -40 28 -69 81
-69 123 0 67 41 120 120 155 57 25 111 26 174 4z"/>
<path d="M618 2717 c-24 -24 -44 -64 -72 -143 -21 -60 -62 -172 -91 -249 -154
-409 -205 -549 -205 -566 0 -39 51 -77 125 -95 187 -44 210 -51 210 -65 0 -18
-53 -32 -226 -59 -42 -7 -82 -16 -89 -20 -9 -5 4 -58 48 -201 33 -107 90 -293
127 -414 67 -220 85 -265 107 -265 7 0 62 -24 123 -54 100 -49 259 -125 310
-147 11 -5 27 -13 35 -18 72 -43 85 -45 156 -28 38 8 89 18 114 22 25 3 59 10
75 15 28 8 92 20 270 51 39 7 74 15 78 19 4 4 -10 15 -33 25 -37 17 -44 17
-102 2 -35 -9 -106 -23 -158 -32 -52 -9 -111 -20 -130 -25 -19 -5 -60 -12 -91
-16 -65 -7 -58 -18 -110 156 -57 192 -54 185 -75 184 -31 -3 -135 -25 -188
-40 -26 -8 -62 -14 -80 -14 -17 0 -55 -7 -84 -14 -86 -23 -66 -60 -192 354
-40 129 -82 267 -95 305 -12 39 -20 75 -18 82 6 16 46 28 183 53 63 11 138 26
166 32 56 12 122 7 224 -16 115 -25 252 -64 261 -73 11 -11 92 -269 213 -678
30 -102 35 -110 59 -113 35 -4 34 10 -4 69 -23 37 -29 55 -24 77 3 16 -1 48
-9 73 -8 24 -31 98 -51 164 -20 66 -55 177 -76 248 -22 70 -37 132 -34 137 9
14 41 12 101 -7 l53 -16 26 -86 c14 -47 28 -91 30 -97 3 -9 55 -8 55 1 0 1
-11 33 -25 71 -14 38 -23 75 -20 83 6 16 84 7 129 -15 37 -18 33 -19 51 16 15
28 14 30 -7 34 -57 10 -187 40 -228 51 -25 7 -56 15 -70 18 -14 2 -77 16 -140
30 -63 14 -126 28 -140 31 -14 2 -54 12 -90 21 -122 30 -175 42 -250 60 -41 9
-104 24 -140 32 -36 8 -87 19 -115 24 -95 16 -155 46 -155 78 0 9 11 43 25 76
13 33 61 159 106 280 72 197 103 278 184 490 13 33 33 68 46 77 23 17 28 16
109 -6 47 -12 121 -31 165 -40 44 -10 105 -24 135 -31 30 -7 91 -21 135 -30
44 -10 100 -24 124 -31 25 -8 54 -14 65 -14 12 0 39 -6 61 -14 22 -7 62 -17
88 -20 l48 -7 -3 28 c-2 19 -9 29 -23 31 -11 1 -36 7 -55 12 -32 8 -67 16
-255 57 -38 8 -92 21 -120 28 -27 8 -113 28 -190 45 -77 17 -156 35 -176 40
-20 6 -62 10 -92 10 -50 0 -60 -3 -89 -33z m350 -1996 c12 -7 71 -188 72 -218
0 -21 -37 -15 -80 12 -22 14 -42 25 -44 25 -3 0 -48 20 -100 45 -53 25 -100
45 -105 45 -15 0 -22 32 -11 46 6 7 41 16 78 20 37 4 85 12 107 19 49 16 66
17 83 6z"/>
<path d="M715 2620 c-21 -23 -14 -46 19 -62 20 -9 30 -8 51 6 30 20 32 37 7
59 -25 23 -55 21 -77 -3z"/>
<path d="M3405 2591 c-40 -17 -60 -51 -60 -102 0 -40 5 -54 28 -76 l27 -28
570 0 570 0 27 28 c23 23 28 36 28 77 0 41 -5 54 -28 77 l-27 28 -558 2 c-306
1 -566 -2 -577 -6z"/>
<path d="M1000 2509 c-170 -43 -265 -100 -346 -204 -128 -166 -105 -380 58
-531 72 -66 145 -102 271 -134 76 -19 106 -22 213 -18 131 5 158 14 138 46 -8
12 -22 16 -45 14 -19 -1 -68 -5 -111 -8 -200 -16 -419 100 -498 262 -34 70
-34 198 0 268 32 67 119 157 182 190 113 59 164 71 293 71 125 -1 198 -18 282
-67 29 -18 34 -18 39 -4 3 9 3 27 0 40 -6 25 -49 43 -166 72 -62 15 -256 17
-310 3z"/>
<path d="M3405 2211 c-40 -17 -60 -51 -60 -102 0 -40 5 -54 28 -76 l27 -28
570 0 570 0 27 28 c23 23 28 36 28 77 0 41 -5 54 -28 77 l-27 28 -558 2 c-306
1 -566 -2 -577 -6z"/>
<path d="M1093 2180 c-17 -6 -45 -24 -62 -41 -117 -117 112 -259 233 -145 61
57 59 110 -7 160 -39 30 -112 41 -164 26z"/>
<path d="M1273 1904 c-6 -16 4 -37 72 -154 21 -36 52 -89 68 -118 39 -70 77
-94 140 -89 60 5 97 37 97 83 0 33 -12 47 -125 139 -27 22 -65 54 -84 71 -98
83 -153 106 -168 68z"/>
<path d="M1564 1849 c-19 -22 -13 -43 19 -63 12 -8 21 -5 36 8 27 24 26 41 -1
60 -29 20 -31 20 -54 -5z"/>
<path d="M416 1825 c-33 -34 -9 -68 45 -63 39 4 59 30 43 56 -15 23 -67 27
-88 7z"/>
<path d="M3235 1811 c-33 -14 -56 -47 -62 -89 l-5 -40 -114 -4 c-92 -3 -118
-8 -132 -22 -16 -16 -16 -18 2 -31 10 -8 41 -17 70 -20 28 -3 349 -5 713 -3
l663 3 27 28 c23 23 28 36 28 77 0 41 -5 54 -28 77 l-27 28 -558 2 c-306 1
-566 -2 -577 -6z"/>
<path d="M3235 1451 c-40 -17 -60 -51 -60 -102 0 -40 5 -54 28 -76 l27 -28
570 0 570 0 27 28 c23 23 28 36 28 77 0 41 -5 54 -28 77 l-27 28 -558 2 c-306
1 -566 -2 -577 -6z"/>
<path d="M1014 1416 c-3 -8 3 -41 14 -73 20 -58 72 -226 119 -383 14 -47 28
-92 31 -100 3 -8 20 -62 37 -120 26 -85 35 -105 51 -105 26 0 24 18 -19 155
-19 63 -70 228 -112 365 -42 138 -78 256 -80 263 -6 17 -34 15 -41 -2z"/>
<path d="M625 1340 c-3 -5 8 -56 25 -112 17 -57 34 -111 36 -120 6 -20 25 -23
40 -8 9 9 -48 204 -69 238 -10 14 -24 16 -32 2z"/>
<path d="M3364 1083 c-70 -14 -95 -126 -41 -180 l27 -28 595 0 595 0 27 28
c23 23 28 36 28 77 0 41 -5 54 -28 77 l-27 28 -578 1 c-317 1 -587 0 -598 -3z"/>
<path d="M3294 703 c-70 -14 -95 -126 -41 -180 l27 -28 595 0 595 0 27 28 c23
23 28 36 28 77 0 41 -5 54 -28 77 l-27 28 -578 1 c-317 1 -587 0 -598 -3z"/>
</g>
</svg>
