<?xml version="1.0" standalone="no"?>
<!DOCTYPE svg PUBLIC "-//W3C//DTD SVG 20010904//EN"
 "http://www.w3.org/TR/2001/REC-SVG-20010904/DTD/svg10.dtd">
<svg version="1.0" xmlns="http://www.w3.org/2000/svg"
 width="474.000000pt" height="314.000000pt" viewBox="0 0 474.000000 314.000000"
 preserveAspectRatio="xMidYMid meet">

<g transform="translate(0.000000,314.000000) scale(0.100000,-0.100000)"
fill="#000000" stroke="none">
<path d="M175 2911 c-68 -41 -70 -48 -73 -220 -2 -134 0 -161 15 -191 23 -43
69 -70 136 -79 l52 -6 191 -900 c105 -495 198 -923 207 -950 54 -160 201 -291
382 -340 57 -16 385 -35 385 -23 0 3 -13 35 -30 70 -36 77 -54 195 -48 317 l4
87 -133 104 c-73 58 -133 107 -132 110 0 3 74 63 165 133 l165 129 73 -56 c40
-31 75 -56 79 -56 3 0 31 18 62 39 l56 39 -73 57 c-40 31 -74 60 -76 64 -3 8
297 247 320 256 13 5 329 -235 336 -256 4 -11 229 -12 234 -1 3 9 283 232 316
253 16 10 30 3 106 -56 59 -47 85 -73 82 -84 -7 -22 -25 -104 -26 -113 0 -5
74 -8 165 -8 91 0 165 4 165 8 0 11 239 1142 246 1165 4 12 16 17 42 17 44 0
109 29 137 60 18 20 20 39 23 185 4 188 -3 212 -68 245 -39 20 -56 20 -1747
20 -1645 0 -1709 -1 -1738 -19z m671 -566 c52 -42 94 -79 93 -83 0 -9 -229
-186 -234 -181 -2 2 -17 72 -35 154 -17 83 -33 158 -36 168 -5 15 2 17 56 17
61 0 61 0 156 -75z m284 68 c0 -10 -63 -53 -76 -53 -10 1 -64 46 -64 55 0 3
32 5 70 5 39 0 70 -3 70 -7z m586 -49 c41 -31 74 -60 74 -63 0 -10 -311 -254
-326 -255 -16 -1 -283 205 -283 219 0 6 41 42 92 82 l92 72 139 0 139 1 73
-56z m211 39 c-16 -16 -18 -16 -34 0 -16 16 -15 17 17 17 32 0 33 -1 17 -17z
m618 -59 c53 -41 93 -79 90 -84 -7 -12 -272 -220 -279 -220 -11 0 -326 252
-326 260 0 5 32 34 72 64 l71 56 139 0 138 0 95 -76z m285 69 c0 -10 -63 -53
-76 -53 -10 1 -64 46 -64 55 0 3 32 5 70 5 39 0 70 -3 70 -7z m367 -15 c-3
-13 -20 -92 -38 -176 -18 -84 -36 -151 -40 -150 -20 7 -238 184 -238 193 0 6
41 42 92 82 l92 72 69 1 c66 0 68 -1 63 -22z m-1119 -318 c88 -69 161 -128
161 -131 1 -7 -303 -247 -323 -255 -14 -5 -337 240 -336 255 1 9 324 261 331
258 4 -1 79 -58 167 -127z m-863 -26 c75 -59 134 -108 133 -109 -36 -33 -326
-255 -333 -255 -19 0 -276 211 -273 225 5 21 309 257 324 251 7 -3 74 -53 149
-112z m1711 -10 c87 -69 160 -128 161 -132 2 -9 -262 -216 -280 -220 -13 -3
-321 235 -327 252 -3 11 258 224 276 225 6 1 82 -56 170 -125z m-1233 -368
c53 -42 97 -80 96 -84 0 -4 -30 -30 -67 -58 -37 -29 -111 -86 -164 -129 l-97
-76 -166 132 c-92 72 -163 135 -158 140 4 4 79 64 167 133 l158 125 67 -53
c36 -29 110 -87 164 -130z m832 49 c83 -65 153 -121 158 -125 7 -6 -301 -257
-322 -262 -13 -4 -330 244 -330 257 0 16 323 264 334 256 6 -4 78 -61 160
-126z m505 -116 c-10 -44 -20 -82 -22 -84 -2 -2 -23 13 -48 34 l-43 37 59 47
c32 25 62 46 65 47 4 0 -1 -36 -11 -81z m-2166 -46 c-21 -17 -40 -30 -42 -28
-4 4 -31 122 -32 138 0 4 25 -11 56 -35 l56 -42 -38 -33z m317 -189 c87 -69
159 -129 159 -133 0 -9 -317 -261 -328 -261 -4 0 -26 17 -50 38 -42 37 -42 38
-73 182 -16 80 -31 153 -32 162 -2 16 135 136 156 137 5 1 80 -56 168 -125z
m18 -719 c77 -60 140 -114 140 -120 0 -5 -20 -25 -45 -44 -40 -31 -49 -33 -92
-27 -97 13 -176 104 -207 238 -15 66 -15 71 2 83 15 11 21 10 40 -3 12 -10 85
-66 162 -127z"/>
<path d="M1852 1113 c-51 -18 -144 -100 -177 -158 -55 -93 -68 -150 -68 -290
0 -109 3 -140 21 -189 33 -88 65 -138 127 -194 91 -83 88 -83 565 -80 l415 3
107 180 c60 99 108 188 108 197 0 10 -44 66 -97 124 -89 97 -96 107 -84 126 7
12 52 71 100 132 107 137 105 134 91 151 -19 23 -1045 21 -1108 -2z m912 -95
c-4 -7 -41 -54 -81 -104 -40 -50 -73 -95 -73 -100 1 -5 47 -60 104 -123 l104
-114 -80 -131 c-44 -72 -83 -135 -87 -139 -9 -9 -622 -8 -708 2 -53 6 -68 12
-99 41 -154 149 -151 486 6 635 42 40 64 42 533 44 308 1 387 -2 381 -11z"/>
<path d="M3121 1000 c-61 -71 -114 -136 -117 -143 -2 -7 40 -71 96 -141 55
-70 100 -133 100 -138 0 -6 -48 -87 -106 -180 -87 -139 -104 -171 -94 -183 11
-13 103 -15 660 -15 l647 0 60 30 c142 71 225 230 226 430 2 197 -80 361 -216
436 l-52 29 -546 3 -546 3 -112 -131z m855 -15 c-125 -163 -125 -477 0 -640
19 -25 32 -45 29 -45 -3 0 -189 0 -415 0 -225 0 -412 0 -415 0 -2 0 34 60 80
133 47 72 85 139 85 148 0 9 -43 69 -95 135 -52 65 -94 124 -92 131 1 6 35 50
76 97 l73 86 354 0 354 0 -34 -45z m373 -3 c86 -82 135 -253 112 -393 -15 -94
-61 -192 -112 -241 -38 -37 -43 -38 -109 -38 -67 0 -72 2 -111 37 -161 145
-158 498 6 642 33 28 42 31 105 31 66 0 71 -1 109 -38z"/>
</g>
</svg>
