<?xml version="1.0" standalone="no"?>
<!DOCTYPE svg PUBLIC "-//W3C//DTD SVG 20010904//EN"
 "http://www.w3.org/TR/2001/REC-SVG-20010904/DTD/svg10.dtd">
<svg version="1.0" xmlns="http://www.w3.org/2000/svg"
 width="474.000000pt" height="314.000000pt" viewBox="0 0 474.000000 314.000000"
 preserveAspectRatio="xMidYMid meet">

<g transform="translate(0.000000,314.000000) scale(0.100000,-0.100000)"
fill="#000000" stroke="none">
<path d="M1250 2933 c-15 -2 -53 -34 -96 -81 l-72 -77 -70 68 c-89 85 -106 87
-176 14 -28 -28 -124 -127 -212 -218 -89 -91 -167 -176 -173 -188 -22 -41 10
-91 59 -91 23 0 59 32 217 195 l190 194 33 -34 33 -34 -146 -153 c-81 -84
-223 -232 -316 -328 l-169 -175 -36 34 -35 34 39 43 c22 24 40 53 40 64 0 27
-43 70 -70 70 -40 0 -170 -140 -170 -182 0 -11 30 -51 66 -89 l67 -69 -58 -66
c-32 -36 -67 -71 -77 -77 -17 -11 -18 -38 -18 -510 0 -387 3 -501 13 -510 59
-56 250 -229 280 -255 l38 -32 248 0 248 0 23 -62 c30 -83 111 -166 193 -196
178 -67 379 32 432 213 l12 40 87 0 87 0 23 -56 c59 -147 184 -228 334 -217
131 10 236 89 288 217 l23 56 346 5 c328 5 347 6 361 24 20 28 17 70 -7 92
-20 18 -43 19 -363 22 l-342 3 -19 52 c-11 29 -21 55 -23 60 -2 4 219 7 492 7
273 0 496 -2 496 -5 0 -2 -10 -28 -22 -57 -16 -39 -22 -75 -22 -133 -1 -69 3
-89 30 -145 38 -78 89 -131 163 -167 175 -86 390 7 454 197 l15 45 288 5 c159
3 297 9 307 14 16 8 17 47 17 611 0 336 -4 605 -9 607 -5 2 -54 82 -109 178
-219 384 -314 546 -328 560 -12 13 -83 16 -472 20 l-457 5 -6 215 c-3 118 -6
216 -7 217 -1 1 -15 9 -32 18 -25 13 -144 15 -967 14 -516 -1 -949 -4 -963 -6z
m1840 -1098 l0 -966 -462 5 c-581 7 -542 7 -929 0 -212 -3 -334 -1 -352 5
l-27 11 0 826 c0 760 -1 828 -16 845 -25 28 -69 24 -93 -7 -21 -27 -21 -32
-21 -849 l0 -823 -22 -6 c-13 -3 -227 -6 -475 -6 l-453 0 0 426 0 426 313 321
c171 177 406 419 522 539 l210 217 903 0 902 1 0 -965z m1071 350 c47 -82 136
-237 197 -343 l112 -194 0 -389 0 -390 -372 6 c-380 5 -405 5 -703 2 l-170 -2
-3 720 c-1 396 0 726 3 733 3 10 94 12 427 10 l422 -3 87 -150z m-2850 -1436
c160 -49 203 -255 75 -367 -54 -48 -123 -62 -187 -40 -89 30 -143 109 -140
206 2 95 52 167 139 198 46 16 65 17 113 3z m885 -24 c130 -76 138 -258 16
-352 -141 -108 -335 9 -320 192 6 74 45 130 118 168 65 34 118 32 186 -8z
m1515 24 c188 -57 199 -327 17 -403 -53 -23 -97 -20 -156 10 -144 72 -159 272
-27 363 58 39 105 48 166 30z m-2741 -18 c0 -5 -11 -34 -25 -65 l-25 -56 -220
0 -220 0 -63 57 c-34 31 -63 61 -65 65 -2 4 136 8 307 8 171 0 311 -4 311 -9z
m840 4 c0 -2 -9 -24 -19 -47 -11 -24 -22 -51 -25 -60 -5 -15 -18 -18 -89 -18
l-83 0 -26 65 -25 65 133 0 c74 0 134 -2 134 -5z m2660 -60 l0 -65 -238 0
-238 0 -22 53 c-12 29 -22 58 -22 65 0 9 61 12 260 12 l260 0 0 -65z"/>
<path d="M2140 2453 c-34 -18 -80 -74 -80 -98 0 -7 9 -24 21 -39 26 -34 68
-34 98 -2 13 14 29 22 36 20 7 -3 30 -38 51 -77 21 -40 77 -146 126 -236 49
-90 87 -165 85 -167 -2 -2 -19 1 -38 6 -74 21 -119 2 -119 -51 0 -44 22 -58
147 -94 137 -39 173 -43 195 -17 18 19 78 244 78 289 0 35 -27 63 -61 63 -37
0 -47 -11 -67 -70 l-18 -53 -88 164 c-157 292 -180 331 -210 352 -40 28 -112
33 -156 10z"/>
<path d="M1790 2045 c-119 -35 -140 -49 -140 -96 0 -54 46 -77 108 -55 23 8
43 12 46 8 2 -4 -47 -101 -110 -217 -101 -187 -114 -215 -114 -260 0 -92 64
-158 150 -153 37 3 47 7 58 30 18 38 1 74 -43 92 -19 8 -35 21 -35 29 0 7 48
103 107 212 l107 200 13 -45 c14 -50 44 -80 78 -80 29 0 55 30 55 65 0 44 -61
268 -78 288 -22 24 -68 20 -202 -18z"/>
<path d="M2139 1473 c-145 -142 -145 -139 -7 -280 89 -90 107 -104 132 -101
18 2 37 14 49 30 17 23 18 31 8 56 -7 17 -23 40 -37 53 -13 12 -24 26 -24 31
0 4 106 8 236 8 270 0 285 4 323 84 25 50 26 84 6 131 -19 48 -59 63 -94 37
-22 -16 -26 -28 -26 -68 l0 -49 -223 -5 c-137 -3 -222 -1 -222 5 0 5 14 24 32
42 39 40 43 87 9 115 -13 10 -30 18 -39 18 -8 0 -64 -48 -123 -107z"/>
<path d="M3390 2150 c-19 -19 -20 -33 -20 -270 l0 -251 25 -24 c24 -25 24 -25
235 -25 l210 0 0 -134 c0 -183 -8 -176 225 -176 236 0 220 -16 220 222 l0 183
-73 128 c-40 70 -98 173 -128 230 -31 56 -63 110 -72 120 -14 15 -42 17 -309
17 -280 0 -294 -1 -313 -20z m626 -265 c46 -82 83 -153 84 -157 0 -5 -135 -8
-300 -8 l-300 0 0 160 0 160 217 -2 216 -3 83 -150z m144 -390 l0 -85 -95 0
-95 0 0 85 0 85 95 0 95 0 0 -85z"/>
</g>
</svg>
