<?xml version="1.0" encoding="UTF-8"?>
<!DOCTYPE svg PUBLIC "-//W3C//DTD SVG 1.1//EN" "http://www.w3.org/Graphics/SVG/1.1/DTD/svg11.dtd">
<svg xmlns="http://www.w3.org/2000/svg" version="1.1" width="184px" height="180px" style="shape-rendering:geometricPrecision; text-rendering:geometricPrecision; image-rendering:optimizeQuality; fill-rule:evenodd; clip-rule:evenodd" xmlns:xlink="http://www.w3.org/1999/xlink">
<g><path style="opacity:0.849" fill="#000000" d="M 72.5,6.5 C 109.313,1.26447 138.979,13.0978 161.5,42C 165.012,50.0589 168.679,58.3922 172.5,67C 172.167,67.3333 171.833,67.6667 171.5,68C 172.227,69.3988 172.727,70.8988 173,72.5C 174.128,86.9396 173.462,101.273 171,115.5C 162.821,138.767 147.321,155.6 124.5,166C 119.272,167.974 113.938,169.641 108.5,171C 81.4049,176.254 57.0716,170.587 35.5,154C 32.3333,149.5 28.5,145.667 24,142.5C 6.4525,118.754 1.4525,92.4209 9,63.5C 20.3267,33.4902 41.4934,14.4902 72.5,6.5 Z M 79.5,17.5 C 121.766,15.7732 148.932,34.4399 161,73.5C 165.729,97.4711 160.229,117.971 144.5,135C 144.833,135.333 145.167,135.667 145.5,136C 135.324,146.737 122.657,154.404 107.5,159C 79.2889,164.655 55.2889,157.322 35.5,137C 35.8333,136.667 36.1667,136.333 36.5,136C 33.7281,134.14 31.3947,131.806 29.5,129C 28.1903,125.409 26.1903,121.742 23.5,118C 24.6341,116.984 24.3008,116.317 22.5,116C 22.8333,115.667 23.1667,115.333 23.5,115C 17.6322,102.052 16.1322,88.5519 19,74.5C 25.2012,49.6359 40.0345,32.1359 63.5,22C 68.8629,20.1628 74.1962,18.6628 79.5,17.5 Z"/></g>
<g><path style="opacity:0.877" fill="#000000" d="M 71.5,31.5 C 73.4672,31.2606 75.3005,31.5939 77,32.5C 83.1447,41.9545 88.6447,51.7879 93.5,62C 93.0969,63.4728 92.4303,64.8061 91.5,66C 87.347,69.1646 82.6803,70.8313 77.5,71C 70.7571,76.726 69.5905,83.5593 74,91.5C 77.0387,98.405 81.2053,104.572 86.5,110C 91.4259,113.906 96.7592,114.906 102.5,113C 101.483,111.951 101.316,110.784 102,109.5C 105.846,104.16 111.013,101.993 117.5,103C 122.912,111.899 128.079,120.399 133,128.5C 133.769,131.099 133.602,133.599 132.5,136C 128.758,137.954 124.925,139.787 121,141.5C 118.693,139.906 117.36,140.572 117,143.5C 116.667,143.167 116.333,142.833 116,142.5C 106.927,148.017 98.094,147.517 89.5,141C 67.5281,122.5 53.3615,98.6663 47,69.5C 45.1071,60.6046 46.7738,52.6046 52,45.5C 52.3333,45.8333 52.6667,46.1667 53,46.5C 55.4235,43.9084 58.2568,41.9084 61.5,40.5C 60.1667,39.5 60.1667,38.5 61.5,37.5C 65.1294,35.8446 68.4627,33.8446 71.5,31.5 Z"/></g>
</svg>
