<?xml version="1.0" encoding="UTF-8"?>
<!DOCTYPE svg PUBLIC "-//W3C//DTD SVG 1.1//EN" "http://www.w3.org/Graphics/SVG/1.1/DTD/svg11.dtd">
<svg xmlns="http://www.w3.org/2000/svg" version="1.1" width="184px" height="180px" style="shape-rendering:geometricPrecision; text-rendering:geometricPrecision; image-rendering:optimizeQuality; fill-rule:evenodd; clip-rule:evenodd" xmlns:xlink="http://www.w3.org/1999/xlink">
<g><path style="opacity:0.757" fill="#000000" d="M 93.5,179.5 C 91.5,179.5 89.5,179.5 87.5,179.5C 65.5494,167.228 43.3827,155.228 21,143.5C 15.0971,145.421 10.2638,143.921 6.5,139C 3.1114,132.769 4.44474,127.769 10.5,124C 9.16667,103 9.16667,82 10.5,61C 6.27783,59.4396 4.61116,56.4396 5.5,52C 5.56488,49.7746 5.89821,47.6079 6.5,45.5C 8.34916,44.407 10.0158,43.0737 11.5,41.5C 16.1381,40.6624 20.8047,40.4957 25.5,41C 47.1249,28.691 68.9582,16.8577 91,5.5C 111.311,16.7957 131.644,28.1291 152,39.5C 156.19,41.6487 160.524,41.982 165,40.5C 174.438,42.4257 177.771,48.0924 175,57.5C 173.667,58.8333 172.333,60.1667 171,61.5C 170.333,83.1667 170.333,104.833 171,126.5C 175.486,130.175 176.653,134.841 174.5,140.5C 169.928,146.81 164.095,148.143 157,144.5C 135.78,156.209 114.613,167.876 93.5,179.5 Z M 96.5,20.5 C 99.6417,20.9965 102.308,22.3298 104.5,24.5C 119.634,32.9024 134.968,41.069 150.5,49C 132.889,50.6993 115.222,51.366 97.5,51C 96.0226,48.8515 94.0226,47.5182 91.5,47C 92.7663,37.2582 93.5997,27.4248 94,17.5C 94.6979,18.6906 95.5313,19.6906 96.5,20.5 Z M 83.5,19.5 C 84.2389,19.369 84.9056,19.5357 85.5,20C 84.6834,27.7543 84.1834,35.5876 84,43.5C 83.0447,48.637 80.2114,51.3036 75.5,51.5C 76.0253,52.1924 76.6919,52.6924 77.5,53C 61.5796,51.5868 45.5796,50.2535 29.5,49C 47.8796,39.6823 65.8796,29.8489 83.5,19.5 Z M 36.5,74.5 C 32.7071,69.6437 29.3738,64.477 26.5,59C 26.6301,57.9412 27.1301,57.1079 28,56.5C 44.557,57.9399 61.057,59.2732 77.5,60.5C 78.2483,62.5841 78.2483,64.5841 77.5,66.5C 72.2711,74.26 67.4378,82.26 63,90.5C 62.1072,89.2888 61.2739,89.2888 60.5,90.5C 61.1667,91.1667 61.8333,91.8333 62.5,92.5C 60.1652,94.7506 58.3319,97.4173 57,100.5C 56.6667,99.8333 56.3333,99.1667 56,98.5C 54.9335,100.283 53.4335,100.783 51.5,100C 51.8333,99.6667 52.1667,99.3333 52.5,99C 46.1045,90.384 40.7712,82.2174 36.5,74.5 Z M 136.5,57.5 C 139.85,57.335 143.183,57.5017 146.5,58C 143.833,58.6667 143.833,59.3333 146.5,60C 138.686,65.3237 131.352,71.157 124.5,77.5C 122.477,76.4599 120.477,75.4599 118.5,74.5C 116.399,75.5917 114.232,76.5917 112,77.5C 107.473,72.973 102.973,68.473 98.5,64C 99.3366,62.9887 99.67,61.8221 99.5,60.5C 112.005,59.4736 124.338,58.4736 136.5,57.5 Z M 150.5,67.5 C 152.997,64.7511 155.997,62.7511 159.5,61.5C 159.173,82.409 159.507,103.242 160.5,124C 159.167,124.667 157.833,124.667 156.5,124C 147.001,113.638 137.668,103.304 128.5,93C 128.823,88.8653 129.99,85.0319 132,81.5C 133.816,80.6705 135.649,79.8372 137.5,79C 137.167,78.6667 136.833,78.3333 136.5,78C 141.02,74.3147 145.687,70.8147 150.5,67.5 Z M 104.5,81.5 C 106.864,82.8417 107.53,84.675 106.5,87C 93.8924,91.7117 81.3924,96.545 69,101.5C 68.2496,100.874 67.4162,100.374 66.5,100C 72.846,90.1484 79.1793,80.315 85.5,70.5C 87.0106,68.5589 89.0106,68.0589 91.5,69C 96.0322,73.0336 100.366,77.2003 104.5,81.5 Z M 20.5,70.5 C 21.8221,70.33 22.9887,70.6634 24,71.5C 31.6592,83.1314 38.8259,94.9647 45.5,107C 45.2026,115.014 41.2026,118.514 33.5,117.5C 32.3961,118.631 32.7295,119.465 34.5,120C 31.2458,121.027 28.2458,122.527 25.5,124.5C 23.7419,123.872 22.2419,122.872 21,121.5C 20.5001,104.503 20.3334,87.5033 20.5,70.5 Z M 108.5,97.5 C 102.339,119.96 95.6724,142.294 88.5,164.5C 80.8333,149.667 73.1667,134.833 65.5,120C 67.7231,117.329 68.8898,114.162 69,110.5C 69.7175,111.451 70.5509,111.617 71.5,111C 70.1667,110.333 70.1667,109.667 71.5,109C 82.931,104.993 94.2644,100.826 105.5,96.5C 106.584,96.685 107.584,97.0183 108.5,97.5 Z M 98.5,164.5 C 101.71,151.732 105.21,139.065 109,126.5C 112.067,118.966 114.733,111.3 117,103.5C 117.654,104.696 118.154,104.696 118.5,103.5C 117.01,101.052 117.677,99.3851 120.5,98.5C 126.101,102.556 130.768,107.056 134.5,112C 133.167,113.84 133.334,114.34 135,113.5C 137.739,115.665 140.239,118.665 142.5,122.5C 145.204,124.239 147.704,126.239 150,128.5C 150.827,129.662 151.66,130.829 152.5,132C 151.576,133.15 151.576,134.15 152.5,135C 135.543,145.521 117.543,155.354 98.5,164.5 Z M 56.5,124.5 C 57.3764,124.369 58.0431,124.702 58.5,125.5C 64.8915,137.867 71.2248,150.2 77.5,162.5C 61.1265,153.702 44.7932,144.702 28.5,135.5C 29.7111,134.28 29.7111,133.113 28.5,132C 35.7542,128.973 42.7542,125.473 49.5,121.5C 51.8952,122.655 54.2285,123.655 56.5,124.5 Z"/></g>
<g><path style="opacity:0.008" fill="#000000" d="M 93.5,44.5 C 94.2891,44.7828 94.9558,45.2828 95.5,46C 94.184,46.5281 93.5173,46.0281 93.5,44.5 Z"/></g>
<g><path style="opacity:0.004" fill="#000000" d="M 171.5,65.5 C 172.833,66.1667 172.833,66.1667 171.5,65.5 Z"/></g>
</svg>
