<?xml version="1.0" encoding="UTF-8"?>
<!DOCTYPE svg PUBLIC "-//W3C//DTD SVG 1.1//EN" "http://www.w3.org/Graphics/SVG/1.1/DTD/svg11.dtd">
<svg xmlns="http://www.w3.org/2000/svg" version="1.1" width="184px" height="180px" style="shape-rendering:geometricPrecision; text-rendering:geometricPrecision; image-rendering:optimizeQuality; fill-rule:evenodd; clip-rule:evenodd" xmlns:xlink="http://www.w3.org/1999/xlink">
<g><path style="opacity:0.898" fill="#000000" d="M 75.5,5.5 C 108.372,1.61603 135.872,11.616 158,35.5C 174.301,56.0321 180.301,79.3654 176,105.5C 168.432,139.409 147.932,161.575 114.5,172C 91.6098,177.57 69.6098,175.07 48.5,164.5C 33.3427,169.789 18.0094,174.455 2.5,178.5C 6.23325,163.462 10.8999,148.629 16.5,134C -3.41553,94.1677 1.91781,58.1677 32.5,26C 45.4203,16.2573 59.7536,9.42395 75.5,5.5 Z M 83.5,20.5 C 117.139,19.0629 141.306,33.3962 156,63.5C 167.924,98.7544 158.758,127.088 128.5,148.5C 102.617,163.358 76.9506,163.025 51.5,147.5C 42.8927,150.54 34.226,153.04 25.5,155C 28.6916,147.094 31.6916,139.094 34.5,131C 16.4594,104.509 15.9594,77.6755 33,50.5C 45.7449,33.5826 62.5782,23.5826 83.5,20.5 Z"/></g>
<g><path style="opacity:0.905" fill="#000000" d="M 60.5,47.5 C 64.1358,47.5941 67.6358,48.2607 71,49.5C 73.981,56.6256 76.8144,63.7923 79.5,71C 78.1198,72.3236 77.7865,73.6569 78.5,75C 76.0411,75.724 75.0411,77.0573 75.5,79C 73.6734,79.8993 72.34,81.2326 71.5,83C 78.1227,95.9494 88.2894,105.116 102,110.5C 105.636,106.534 109.636,102.868 114,99.5C 121.794,102.729 129.127,106.729 136,111.5C 136.641,117.745 134.808,123.078 130.5,127.5C 123.4,132.287 115.734,133.787 107.5,132C 92,127.922 78.6666,120.256 67.5,109C 67.8333,108.667 68.1667,108.333 68.5,108C 62.011,100.987 56.511,93.8208 52,86.5C 45.5615,74.6246 46.0615,63.1246 53.5,52C 55.76,50.2117 58.0934,48.7117 60.5,47.5 Z"/></g>
</svg>
